<svg width="200" height="182" viewBox="0 0 200 182" fill="none" xmlns="http://www.w3.org/2000/svg">
<g id="greyStars">
<path id="med" d="M73.7731 36.0667C56.8418 36.3052 42.8743 22.8146 42.6374 5.99415C42.6078 3.88854 40.865 2.20523 38.7455 2.23508C36.626 2.26493 34.9313 3.99666 34.9609 6.10227C35.1978 22.9227 21.6159 36.8013 4.68459 37.0398C2.56511 37.0696 0.870389 38.8014 0.900045 40.907C0.929702 43.0126 2.67252 44.6959 4.792 44.666C21.7233 44.4276 35.6907 57.9181 35.9276 74.7386C35.9573 76.8442 37.7001 78.5275 39.8196 78.4976C41.9391 78.4678 43.6338 76.7361 43.6041 74.6304C43.3672 57.81 56.9492 43.9314 73.8805 43.6929C76 43.6631 77.6947 41.9314 77.665 39.8258C77.6354 37.7201 75.8925 36.0368 73.7731 36.0667ZM39.5319 58.0703C35.6558 50.4232 29.266 44.2515 21.4619 40.6174C29.1602 36.7652 35.3736 30.4161 39.0332 22.6624C42.9093 30.3096 49.2991 36.4812 57.1031 40.1154C49.4045 43.9675 43.1911 50.3166 39.5319 58.0703Z" fill="black" fill-opacity="0.42"/>
<path id="small" d="M195.138 148.773C184.556 148.922 175.826 140.491 175.678 129.978C175.648 127.872 173.906 126.189 171.786 126.219C169.666 126.249 167.972 127.98 168.001 130.086C168.149 140.599 159.661 149.273 149.079 149.422C146.959 149.452 145.264 151.183 145.294 153.289C145.324 155.395 147.066 157.078 149.186 157.048C159.768 156.899 168.498 165.331 168.646 175.843C168.675 177.949 170.418 179.632 172.538 179.603C174.658 179.573 176.352 177.841 176.322 175.735C176.174 165.223 184.663 156.548 195.245 156.399C197.365 156.37 199.059 154.638 199.03 152.532C199 150.427 197.257 148.743 195.138 148.773ZM172.291 162.053C169.968 158.344 166.756 155.242 162.96 153.04C166.693 150.733 169.817 147.541 172.033 143.768C174.355 147.477 177.567 150.58 181.364 152.781C177.631 155.088 174.507 158.28 172.291 162.053Z" fill="black" fill-opacity="0.42"/>
<path id="Vector" d="M90.7985 72.8216C88.6787 72.8515 86.9843 74.5829 87.0139 76.6888C87.0436 78.7947 88.7861 80.4777 90.9059 80.4479C93.0257 80.418 94.7201 78.6866 94.6904 76.5807C94.6608 74.4747 92.9183 72.7917 90.7985 72.8216Z" fill="black" fill-opacity="0.42"/>
<path id="Vector_2" d="M80.735 85.4751C79.6282 83.6795 77.2643 83.1155 75.4567 84.2161C65.5152 90.2669 54.0628 93.5525 42.3374 93.7177C40.2179 93.7475 38.5232 95.4793 38.5528 97.5849C38.5825 99.6905 40.3253 101.374 42.4448 101.344C78.4238 100.837 108.105 129.505 108.608 165.248C108.638 167.354 110.38 169.037 112.5 169.007C114.62 168.977 116.314 167.246 116.285 165.14C115.781 129.396 144.643 99.9045 180.622 99.3978C182.742 99.3679 184.436 97.6362 184.406 95.5306C184.377 93.425 182.634 91.7416 180.514 91.7715C144.535 92.2783 114.855 63.6109 114.351 27.8674C114.321 25.7618 112.579 24.0785 110.459 24.1083C108.339 24.1382 106.645 25.8699 106.675 27.9755C106.839 39.6242 103.855 51.0896 98.047 61.1325C96.9909 62.959 97.6245 65.2898 99.4624 66.3387C101.302 67.3887 103.647 66.7576 104.703 64.9316C107.238 60.5488 109.291 55.9253 110.843 51.1414C118.417 72.3452 135.654 88.9907 157.203 95.9137C135.855 103.442 119.093 120.57 112.119 141.982C104.547 120.777 87.3125 104.129 65.7645 97.2043C70.5339 95.5292 75.1282 93.3599 79.4671 90.7191C81.2744 89.6185 81.8425 87.2711 80.735 85.4751Z" fill="black" fill-opacity="0.42"/>
</g>
</svg>
