<svg width="235" height="50" viewBox="0 0 235 50" fill="none" xmlns="http://www.w3.org/2000/svg">
<g clip-path="url(#clip0)">
<path d="M0 0H175V50H0V0Z" fill="#747474"/>
<path d="M8.4 20.14V18.02H15.2V27.24C15.2 28.8667 14.7867 30.0867 13.96 30.9C13.1333 31.7133 12.0733 32.12 10.78 32.12C9.15333 32.12 7.76667 31.5467 6.62 30.4L7.96 28.54C8.86667 29.4067 9.75333 29.84 10.62 29.84C11.2333 29.84 11.7533 29.6333 12.18 29.22C12.62 28.8067 12.84 28.1867 12.84 27.36V20.14H8.4ZM28.5356 27.66H20.1956C20.249 28.4333 20.6023 29.06 21.2556 29.54C21.909 30.0067 22.6556 30.24 23.4956 30.24C24.829 30.24 25.8423 29.82 26.5356 28.98L27.8156 30.38C26.669 31.5667 25.1756 32.16 23.3356 32.16C21.8423 32.16 20.569 31.6667 19.5156 30.68C18.4756 29.68 17.9556 28.3467 17.9556 26.68C17.9556 25 18.489 23.6667 19.5556 22.68C20.6223 21.6933 21.8756 21.2 23.3156 21.2C24.769 21.2 26.0023 21.64 27.0156 22.52C28.029 23.3867 28.5356 24.5867 28.5356 26.12V27.66ZM20.1956 25.9H26.2956C26.2956 25.0067 26.0156 24.32 25.4556 23.84C24.8956 23.36 24.2023 23.12 23.3756 23.12C22.5623 23.12 21.829 23.3733 21.1756 23.88C20.5223 24.3733 20.1956 25.0467 20.1956 25.9ZM38.5789 28.82C38.5789 29.8333 38.2122 30.6467 37.4789 31.26C36.7456 31.86 35.8056 32.16 34.6589 32.16C33.8856 32.16 33.0789 32.02 32.2389 31.74C31.4122 31.46 30.6789 31.0667 30.0389 30.56L31.1189 28.82C32.3589 29.7533 33.5589 30.22 34.7189 30.22C35.2256 30.22 35.6256 30.1067 35.9189 29.88C36.2122 29.64 36.3589 29.34 36.3589 28.98C36.3589 28.4467 35.6522 27.9667 34.2389 27.54C34.1322 27.5 34.0522 27.4733 33.9989 27.46C31.7856 26.86 30.6789 25.86 30.6789 24.46C30.6789 23.4733 31.0589 22.6867 31.8189 22.1C32.5922 21.5 33.5922 21.2 34.8189 21.2C36.0456 21.2 37.2056 21.56 38.2989 22.28L37.4589 23.94C36.5922 23.3667 35.6522 23.08 34.6389 23.08C34.1056 23.08 33.6722 23.18 33.3389 23.38C33.0056 23.5667 32.8389 23.8533 32.8389 24.24C32.8389 24.5867 33.0122 24.84 33.3589 25C33.5989 25.12 33.9322 25.2333 34.3589 25.34C34.7989 25.4467 35.1856 25.5533 35.5189 25.66C35.8522 25.7667 36.1722 25.8867 36.4789 26.02C36.7989 26.1533 37.1389 26.34 37.4989 26.58C38.2189 27.06 38.5789 27.8067 38.5789 28.82ZM48.5561 27.12V21.36H50.7961V32H48.5561V30.06C48.1961 30.7133 47.6961 31.2267 47.0561 31.6C46.4294 31.9733 45.7494 32.16 45.0161 32.16C43.8161 32.16 42.8428 31.7933 42.0961 31.06C41.3628 30.3267 40.9961 29.2667 40.9961 27.88V21.36H43.2361V27.2C43.2361 29.16 44.0494 30.14 45.6761 30.14C46.4494 30.14 47.1228 29.8867 47.6961 29.38C48.2694 28.86 48.5561 28.1067 48.5561 27.12ZM61.6258 28.82C61.6258 29.8333 61.2591 30.6467 60.5258 31.26C59.7924 31.86 58.8524 32.16 57.7058 32.16C56.9324 32.16 56.1258 32.02 55.2858 31.74C54.4591 31.46 53.7258 31.0667 53.0858 30.56L54.1658 28.82C55.4058 29.7533 56.6058 30.22 57.7658 30.22C58.2724 30.22 58.6724 30.1067 58.9658 29.88C59.2591 29.64 59.4058 29.34 59.4058 28.98C59.4058 28.4467 58.6991 27.9667 57.2858 27.54C57.1791 27.5 57.0991 27.4733 57.0458 27.46C54.8324 26.86 53.7258 25.86 53.7258 24.46C53.7258 23.4733 54.1058 22.6867 54.8658 22.1C55.6391 21.5 56.6391 21.2 57.8658 21.2C59.0924 21.2 60.2524 21.56 61.3458 22.28L60.5058 23.94C59.6391 23.3667 58.6991 23.08 57.6858 23.08C57.1524 23.08 56.7191 23.18 56.3858 23.38C56.0524 23.5667 55.8858 23.8533 55.8858 24.24C55.8858 24.5867 56.0591 24.84 56.4058 25C56.6458 25.12 56.9791 25.2333 57.4058 25.34C57.8458 25.4467 58.2324 25.5533 58.5658 25.66C58.8991 25.7667 59.2191 25.8867 59.5258 26.02C59.8458 26.1533 60.1858 26.34 60.5458 26.58C61.2658 27.06 61.6258 27.8067 61.6258 28.82ZM69.9713 32V18.02H72.3313V29.76H78.7113V32H69.9713ZM83.2836 29.2C83.9236 29.84 84.7303 30.16 85.7036 30.16C86.6769 30.16 87.4769 29.84 88.1036 29.2C88.7436 28.5467 89.0636 27.7067 89.0636 26.68C89.0636 25.6533 88.7436 24.82 88.1036 24.18C87.4769 23.5267 86.6769 23.2 85.7036 23.2C84.7303 23.2 83.9236 23.5267 83.2836 24.18C82.6569 24.82 82.3436 25.6533 82.3436 26.68C82.3436 27.7067 82.6569 28.5467 83.2836 29.2ZM89.7036 30.58C88.6369 31.6333 87.3036 32.16 85.7036 32.16C84.1036 32.16 82.7703 31.6333 81.7036 30.58C80.6369 29.5133 80.1036 28.2133 80.1036 26.68C80.1036 25.1467 80.6369 23.8533 81.7036 22.8C82.7703 21.7333 84.1036 21.2 85.7036 21.2C87.3036 21.2 88.6369 21.7333 89.7036 22.8C90.7703 23.8533 91.3036 25.1467 91.3036 26.68C91.3036 28.2133 90.7703 29.5133 89.7036 30.58ZM96.4947 32L92.2147 21.36H94.5347L97.7747 29.4L101.015 21.36H103.335L99.0547 32H96.4947ZM115.02 27.66H106.68C106.733 28.4333 107.087 29.06 107.74 29.54C108.393 30.0067 109.14 30.24 109.98 30.24C111.313 30.24 112.327 29.82 113.02 28.98L114.3 30.38C113.153 31.5667 111.66 32.16 109.82 32.16C108.327 32.16 107.053 31.6667 106 30.68C104.96 29.68 104.44 28.3467 104.44 26.68C104.44 25 104.973 23.6667 106.04 22.68C107.107 21.6933 108.36 21.2 109.8 21.2C111.253 21.2 112.487 21.64 113.5 22.52C114.513 23.3867 115.02 24.5867 115.02 26.12V27.66ZM106.68 25.9H112.78C112.78 25.0067 112.5 24.32 111.94 23.84C111.38 23.36 110.687 23.12 109.86 23.12C109.047 23.12 108.313 23.3733 107.66 23.88C107.007 24.3733 106.68 25.0467 106.68 25.9ZM125.063 28.82C125.063 29.8333 124.697 30.6467 123.963 31.26C123.23 31.86 122.29 32.16 121.143 32.16C120.37 32.16 119.563 32.02 118.723 31.74C117.897 31.46 117.163 31.0667 116.523 30.56L117.603 28.82C118.843 29.7533 120.043 30.22 121.203 30.22C121.71 30.22 122.11 30.1067 122.403 29.88C122.697 29.64 122.843 29.34 122.843 28.98C122.843 28.4467 122.137 27.9667 120.723 27.54C120.617 27.5 120.537 27.4733 120.483 27.46C118.27 26.86 117.163 25.86 117.163 24.46C117.163 23.4733 117.543 22.6867 118.303 22.1C119.077 21.5 120.077 21.2 121.303 21.2C122.53 21.2 123.69 21.56 124.783 22.28L123.943 23.94C123.077 23.3667 122.137 23.08 121.123 23.08C120.59 23.08 120.157 23.18 119.823 23.38C119.49 23.5667 119.323 23.8533 119.323 24.24C119.323 24.5867 119.497 24.84 119.843 25C120.083 25.12 120.417 25.2333 120.843 25.34C121.283 25.4467 121.67 25.5533 122.003 25.66C122.337 25.7667 122.657 25.8867 122.963 26.02C123.283 26.1533 123.623 26.34 123.983 26.58C124.703 27.06 125.063 27.8067 125.063 28.82ZM138.909 32H136.509V26.48L131.309 18.02H133.889L137.709 24.38L141.529 18.02H144.109L138.909 26.48V32ZM146.858 29.2C147.498 29.84 148.304 30.16 149.278 30.16C150.251 30.16 151.051 29.84 151.678 29.2C152.318 28.5467 152.638 27.7067 152.638 26.68C152.638 25.6533 152.318 24.82 151.678 24.18C151.051 23.5267 150.251 23.2 149.278 23.2C148.304 23.2 147.498 23.5267 146.858 24.18C146.231 24.82 145.918 25.6533 145.918 26.68C145.918 27.7067 146.231 28.5467 146.858 29.2ZM153.278 30.58C152.211 31.6333 150.878 32.16 149.278 32.16C147.678 32.16 146.344 31.6333 145.278 30.58C144.211 29.5133 143.678 28.2133 143.678 26.68C143.678 25.1467 144.211 23.8533 145.278 22.8C146.344 21.7333 147.678 21.2 149.278 21.2C150.878 21.2 152.211 21.7333 153.278 22.8C154.344 23.8533 154.878 25.1467 154.878 26.68C154.878 28.2133 154.344 29.5133 153.278 30.58ZM164.865 27.12V21.36H167.105V32H164.865V30.06C164.505 30.7133 164.005 31.2267 163.365 31.6C162.738 31.9733 162.058 32.16 161.325 32.16C160.125 32.16 159.151 31.7933 158.405 31.06C157.671 30.3267 157.305 29.2667 157.305 27.88V21.36H159.545V27.2C159.545 29.16 160.358 30.14 161.985 30.14C162.758 30.14 163.431 29.8867 164.005 29.38C164.578 28.86 164.865 28.1067 164.865 27.12Z" fill="#121212"/>
<path d="M174.707 0H234.525V50H174.707V0Z" fill="#D35B09"/>
<path d="M212.52 18.386C210.63 16.653 207.565 16.653 205.673 18.386L204.391 19.564L203.111 18.386C201.221 16.653 198.161 16.653 196.271 18.386C194.141 20.336 194.141 23.501 196.271 25.451L204.398 32.921L212.528 25.458C214.651 23.508 214.651 20.344 212.528 18.394L212.52 18.386Z" fill="white"/>
<path d="M174.707 0H234.525V50H174.707V0Z" fill="#2D2D2D"/>
<path d="M212.52 18.386C210.63 16.653 207.565 16.653 205.673 18.386L204.391 19.564L203.111 18.386C201.221 16.653 198.161 16.653 196.271 18.386C194.141 20.336 194.141 23.501 196.271 25.451L204.398 32.921L212.528 25.458C214.651 23.508 214.651 20.344 212.528 18.394L212.52 18.386Z" fill="#D6161C"/>
</g>
<defs>
<clipPath id="clip0">
<rect width="234.525" height="50" fill="white"/>
</clipPath>
</defs>
</svg>
