<svg width="342" height="140" viewBox="0 0 342 140" fill="none" xmlns="http://www.w3.org/2000/svg">
<path fill-rule="evenodd" clip-rule="evenodd" d="M70.004 12.696C101.56 12.696 127.296 38.4398 127.296 70.0039C127.296 96.971 108.492 119.685 83.3236 125.721L83.6834 93.9089C98.3302 89.7036 105.262 68.7809 106.925 38.9276L100.329 38.4558C99.5134 60.7138 95.452 80.7013 83.8673 84.3069C76.5279 86.5936 61.5373 81.9246 55.8769 60.7617L50.848 60.6018C54.3019 75.8164 61.8411 87.281 75.3606 93.2772L71.7549 127.264C71.1713 127.281 70.5876 127.296 70.004 127.296C38.4398 127.296 12.696 101.56 12.696 70.0039C12.696 38.4398 38.4398 12.696 70.004 12.696ZM67.0139 77.2554C67.2697 69.2765 67.5096 61.3214 67.8294 53.3184C77.0955 52.9906 82.4522 55.7169 86.9373 58.891L93.3733 35.17C73.4898 50.5842 54.3019 49.6569 35.8415 32.4036L38.6077 62.2728C44.524 57.2519 51.4477 53.8541 59.5306 53.6222C59.4346 57.5557 59.3707 61.4972 59.3147 65.431L59.3867 65.6146L60.0582 67.1978L60.7698 68.6927L61.5133 70.1078L62.2968 71.435L63.0963 72.6664L63.9358 73.8256L64.7913 74.905L65.6627 75.9044L66.5582 76.8317L67.0139 77.2554ZM45.8912 94.6204C51.1119 98.7778 55.8369 96.4754 55.749 86.4097C55.0294 73.2099 45.0197 73.1301 40.4546 80.7013C34.4983 90.4792 39.5351 111.586 54.5017 112.169C64.8952 111.818 65.8146 101.744 66.5022 91.6703C66.5262 91.1988 66.5422 90.727 66.5582 90.2552L66.2384 90.0234L65.175 89.192L64.1437 88.3285L63.1523 87.4331L62.1929 86.5136L61.2575 85.5621L60.3621 84.5788L59.4986 83.5716L59.0988 83.0679C59.0509 86.2739 58.9949 89.4877 58.915 92.6937C59.6745 104.438 46.7386 107.077 45.8912 94.6204ZM63.2003 26.8951C66.5502 26.8951 69.2765 30.5726 69.2765 35.082C69.2765 39.5912 66.5502 43.2687 63.2003 43.2687C59.8584 43.2687 57.1321 39.5912 57.1321 35.082C57.1321 30.5726 59.8584 26.8951 63.2003 26.8951ZM82.0524 61.5692C84.6428 61.7613 86.4976 65.3349 86.1858 69.5164C85.866 73.7058 83.4995 76.9597 80.9091 76.7679C78.3188 76.568 76.4639 73.0022 76.7837 68.8047C77.0955 64.6234 79.4621 61.3696 82.0524 61.5692ZM70.004 3.25388C33.467 3.25388 3.25396 33.467 3.25396 70.0039C3.25396 106.525 33.467 136.738 70.004 136.738C106.525 136.738 136.738 106.525 136.738 70.0039C136.738 33.467 106.525 3.25388 70.004 3.25388ZM70.004 0C31.6841 0 0 31.684 0 70.0039C0 108.308 31.6841 140 70.004 140C108.308 140 140 108.308 140 70.0039C140 31.684 108.308 0 70.004 0Z" fill="#747474"/>
<text fill="#747474" xml:space="preserve" style="white-space: pre" font-family="Poor Richard" font-size="90" letter-spacing="0.055em"><tspan x="157" y="101.745">MEC</tspan></text>
</svg>
