<svg width="345" height="140" viewBox="0 0 345 140" fill="none" xmlns="http://www.w3.org/2000/svg">
<path fill-rule="evenodd" clip-rule="evenodd" d="M70.004 12.696C101.56 12.696 127.296 38.4398 127.296 70.0039C127.296 96.971 108.492 119.685 83.3236 125.721L83.6834 93.9089C98.3302 89.7036 105.262 68.7809 106.925 38.9276L100.329 38.4558C99.5134 60.7138 95.452 80.7013 83.8673 84.3069C76.5279 86.5936 61.5373 81.9246 55.8769 60.7617L50.848 60.6018C54.3019 75.8164 61.8411 87.281 75.3606 93.2772L71.7549 127.264C71.1713 127.281 70.5876 127.296 70.004 127.296C38.4398 127.296 12.696 101.56 12.696 70.0039C12.696 38.4398 38.4398 12.696 70.004 12.696ZM67.0139 77.2554C67.2697 69.2765 67.5096 61.3214 67.8294 53.3184C77.0955 52.9906 82.4522 55.7169 86.9373 58.891L93.3733 35.17C73.4898 50.5842 54.3019 49.6569 35.8415 32.4036L38.6077 62.2728C44.524 57.2519 51.4477 53.8541 59.5306 53.6222C59.4346 57.5557 59.3707 61.4972 59.3147 65.431L59.3867 65.6146L60.0582 67.1978L60.7698 68.6927L61.5133 70.1078L62.2968 71.435L63.0963 72.6664L63.9358 73.8256L64.7913 74.905L65.6627 75.9044L66.5582 76.8317L67.0139 77.2554ZM45.8912 94.6204C51.1119 98.7778 55.8369 96.4754 55.749 86.4097C55.0294 73.2099 45.0197 73.1301 40.4546 80.7013C34.4983 90.4792 39.5351 111.586 54.5017 112.169C64.8952 111.818 65.8146 101.744 66.5022 91.6703C66.5262 91.1988 66.5422 90.727 66.5582 90.2552L66.2384 90.0234L65.175 89.192L64.1437 88.3285L63.1523 87.4331L62.1929 86.5136L61.2575 85.5621L60.3621 84.5788L59.4986 83.5716L59.0988 83.0679C59.0509 86.2739 58.9949 89.4877 58.915 92.6937C59.6745 104.438 46.7386 107.077 45.8912 94.6204ZM63.2003 26.8951C66.5502 26.8951 69.2765 30.5726 69.2765 35.082C69.2765 39.5912 66.5502 43.2687 63.2003 43.2687C59.8584 43.2687 57.1321 39.5912 57.1321 35.082C57.1321 30.5726 59.8584 26.8951 63.2003 26.8951ZM82.0524 61.5692C84.6428 61.7613 86.4976 65.3349 86.1858 69.5164C85.866 73.7058 83.4995 76.9597 80.9091 76.7679C78.3188 76.568 76.4639 73.0022 76.7837 68.8047C77.0955 64.6234 79.4621 61.3696 82.0524 61.5692ZM70.004 3.25388C33.467 3.25388 3.25396 33.467 3.25396 70.0039C3.25396 106.525 33.467 136.738 70.004 136.738C106.525 136.738 136.738 106.525 136.738 70.0039C136.738 33.467 106.525 3.25388 70.004 3.25388ZM70.004 0C31.6841 0 0 31.684 0 70.0039C0 108.308 31.6841 140 70.004 140C108.308 140 140 108.308 140 70.0039C140 31.684 108.308 0 70.004 0Z" fill="#747474"/>
<path d="M222.36 41L221.864 44.9691L222.111 45H222.36V41ZM224.16 41.81L221.17 44.4675L221.327 44.6433L221.503 44.7996L224.16 41.81ZM224.16 103.28L226.817 106.27L226.905 106.192L226.988 106.108L224.16 103.28ZM220.11 103.28L217.282 106.108L217.365 106.192L217.453 106.27L220.11 103.28ZM219.3 51.8H223.3V38.4797L215.962 49.5964L219.3 51.8ZM198.15 83.84L201.32 86.2788L201.409 86.1643L201.488 86.0436L198.15 83.84ZM196.08 84.92L196.387 80.9318L196.234 80.92H196.08V84.92ZM193.92 83.84L190.576 86.035L190.701 86.2256L190.847 86.4007L193.92 83.84ZM172.77 51.62L176.114 49.425L168.77 38.2372V51.62H172.77ZM171.96 103.28L169.132 100.452L169.132 100.452L171.96 103.28ZM168.18 103.28L165.19 105.937L165.268 106.025L165.352 106.108L168.18 103.28ZM168.18 41.81L165.352 38.9816L165.268 39.0647L165.19 39.1525L168.18 41.81ZM171.51 41.36L169.721 44.9377L169.909 45.0316L170.105 45.1053L171.51 41.36ZM172.59 42.17L175.918 39.9512L175.918 39.9512L172.59 42.17ZM196.17 77.54L192.842 79.7588L196.157 84.7321L199.49 79.7705L196.17 77.54ZM219.93 42.17L216.704 39.8045L216.656 39.8711L216.61 39.9395L219.93 42.17ZM222.36 45C222.208 45 221.972 44.9686 221.709 44.8502C221.446 44.732 221.268 44.5772 221.17 44.4675L227.15 39.1525C225.914 37.762 224.227 37 222.36 37V45ZM221.503 44.7996C221.357 44.6706 221.2 44.4728 221.091 44.2182C220.985 43.9711 220.97 43.7773 220.97 43.7H228.97C228.97 41.8798 228.285 40.1249 226.817 38.8204L221.503 44.7996ZM220.97 43.7V101.3H228.97V43.7H220.97ZM220.97 101.3C220.97 101.22 220.986 101.06 221.065 100.865C221.145 100.67 221.253 100.53 221.332 100.452L226.988 106.108C228.296 104.8 228.97 103.115 228.97 101.3H220.97ZM221.503 100.29C221.599 100.204 221.734 100.119 221.893 100.061C222.047 100.005 222.155 100 222.18 100V108C223.855 108 225.484 107.455 226.817 106.27L221.503 100.29ZM222.18 100C222.141 100 222.211 99.9949 222.347 100.042C222.491 100.092 222.641 100.178 222.767 100.29L217.453 106.27C218.842 107.505 220.53 108 222.18 108V100ZM222.938 100.452C223.017 100.53 223.125 100.67 223.205 100.865C223.284 101.06 223.3 101.22 223.3 101.3H215.3C215.3 103.115 215.974 104.8 217.282 106.108L222.938 100.452ZM223.3 101.3V51.8H215.3V101.3H223.3ZM215.962 49.5964L194.812 81.6364L201.488 86.0436L222.638 54.0036L215.962 49.5964ZM194.98 81.4012C194.943 81.4484 195.045 81.2988 195.332 81.1487C195.654 80.9806 196.035 80.9047 196.387 80.9318L195.773 88.9082C198.251 89.0988 200.138 87.8157 201.32 86.2788L194.98 81.4012ZM196.08 80.92H195.9V88.92H196.08V80.92ZM195.9 80.92C196.239 80.92 196.55 81.0126 196.78 81.1384C196.987 81.2511 197.047 81.3443 196.993 81.2793L190.847 86.4007C191.961 87.7373 193.656 88.92 195.9 88.92V80.92ZM197.264 81.645L176.114 49.425L169.426 53.815L190.576 86.035L197.264 81.645ZM168.77 51.62V101.3H176.77V51.62H168.77ZM168.77 101.3C168.77 101.22 168.786 101.06 168.865 100.865C168.945 100.67 169.053 100.53 169.132 100.452L174.788 106.108C176.096 104.8 176.77 103.115 176.77 101.3H168.77ZM169.132 100.452C169.288 100.296 169.488 100.164 169.704 100.082C169.909 100.004 170.049 100 170.07 100V108C171.739 108 173.445 107.452 174.788 106.108L169.132 100.452ZM170.07 100C170.091 100 170.231 100.004 170.436 100.082C170.652 100.164 170.852 100.296 171.008 100.452L165.352 106.108C166.695 107.452 168.401 108 170.07 108V100ZM171.17 100.623C171.256 100.719 171.341 100.854 171.399 101.013C171.455 101.167 171.46 101.275 171.46 101.3H163.46C163.46 102.975 164.005 104.604 165.19 105.937L171.17 100.623ZM171.46 101.3V43.7H163.46V101.3H171.46ZM171.46 43.7C171.46 43.7933 171.443 43.9416 171.378 44.1115C171.313 44.2812 171.229 44.4012 171.17 44.4675L165.19 39.1525C164.062 40.4219 163.46 41.9966 163.46 43.7H171.46ZM171.008 44.6384C170.93 44.7171 170.79 44.8246 170.595 44.9047C170.4 44.9841 170.24 45 170.16 45V37C168.345 37 166.66 37.6736 165.352 38.9816L171.008 44.6384ZM170.16 45C169.811 45 169.647 44.9006 169.721 44.9377L173.299 37.7823C172.413 37.3394 171.349 37 170.16 37V45ZM170.105 45.1053C170.038 45.08 169.903 45.0198 169.74 44.8975C169.572 44.7714 169.403 44.6011 169.262 44.3888L175.918 39.9512C175.132 38.7714 174.031 38.0333 172.915 37.6147L170.105 45.1053ZM169.262 44.3888L192.842 79.7588L199.498 75.3212L175.918 39.9512L169.262 44.3888ZM199.49 79.7705L223.25 44.4005L216.61 39.9395L192.85 75.3095L199.49 79.7705ZM223.156 44.5354C223.19 44.4886 223.08 44.6564 222.768 44.8065C222.426 44.9709 222.087 44.9969 221.864 44.9691L222.856 37.0309C220.209 36.7 218.064 37.9509 216.704 39.8045L223.156 44.5354ZM279.523 99.5L276.534 102.157L276.612 102.245L276.695 102.328L279.523 99.5ZM279.523 103.28L276.866 100.29L276.778 100.368L276.695 100.452L279.523 103.28ZM242.623 103.28L239.634 105.937L239.79 106.113L239.966 106.27L242.623 103.28ZM242.623 41.81L239.795 38.9816L239.795 38.9816L242.623 41.81ZM279.523 41.81L276.534 44.4675L276.69 44.6433L276.866 44.7996L279.523 41.81ZM279.523 45.59L276.866 42.6004L276.778 42.6784L276.695 42.7616L279.523 45.59ZM247.573 46.31V42.31H243.573V46.31H247.573ZM247.573 68.9H243.573V72.9H247.573V68.9ZM275.473 69.71L272.484 72.3675L272.64 72.5433L272.816 72.6996L275.473 69.71ZM275.473 73.49L272.816 70.5004L272.728 70.5785L272.645 70.6616L275.473 73.49ZM247.573 74.21V70.21H243.573V74.21H247.573ZM247.573 98.69H243.573V102.69H247.573V98.69ZM277.633 102.69C277.556 102.69 277.362 102.675 277.115 102.569C276.861 102.46 276.663 102.303 276.534 102.157L282.513 96.8425C281.208 95.3749 279.454 94.69 277.633 94.69V102.69ZM276.695 102.328C276.646 102.28 276.541 102.156 276.454 101.953C276.365 101.745 276.333 101.544 276.333 101.39H284.333C284.333 99.5398 283.591 97.9112 282.352 96.6716L276.695 102.328ZM276.333 101.39C276.333 101.313 276.348 101.119 276.454 100.872C276.563 100.617 276.721 100.419 276.866 100.29L282.181 106.27C283.648 104.965 284.333 103.21 284.333 101.39H276.333ZM276.695 100.452C276.851 100.296 277.051 100.164 277.267 100.082C277.472 100.004 277.612 100 277.633 100V108C279.303 108 281.008 107.452 282.352 106.108L276.695 100.452ZM277.633 100H244.603V108H277.633V100ZM244.603 100C244.628 100 244.736 100.005 244.89 100.061C245.049 100.119 245.184 100.204 245.281 100.29L239.966 106.27C241.299 107.455 242.928 108 244.603 108V100ZM245.613 100.623C245.699 100.719 245.785 100.854 245.843 101.013C245.899 101.167 245.903 101.275 245.903 101.3H237.903C237.903 102.975 238.449 104.604 239.634 105.937L245.613 100.623ZM245.903 101.3V43.7H237.903V101.3H245.903ZM245.903 43.7C245.903 43.7214 245.899 43.8613 245.821 44.0665C245.739 44.2823 245.608 44.4825 245.452 44.6384L239.795 38.9816C238.452 40.3249 237.903 42.0307 237.903 43.7H245.903ZM245.452 44.6384C245.373 44.7171 245.234 44.8246 245.038 44.9047C244.844 44.9841 244.684 45 244.603 45V37C242.788 37 241.103 37.6736 239.795 38.9816L245.452 44.6384ZM244.603 45H277.633V37H244.603V45ZM277.633 45C277.556 45 277.362 44.985 277.115 44.8791C276.861 44.7699 276.663 44.6126 276.534 44.4675L282.513 39.1525C281.208 37.6849 279.454 37 277.633 37V45ZM276.866 44.7996C276.721 44.6706 276.563 44.4728 276.454 44.2182C276.348 43.9711 276.333 43.7773 276.333 43.7H284.333C284.333 41.8798 283.648 40.1249 282.181 38.8204L276.866 44.7996ZM276.333 43.7C276.333 43.6227 276.348 43.4289 276.454 43.1818C276.563 42.9272 276.721 42.7294 276.866 42.6004L282.181 48.5796C283.648 47.2751 284.333 45.5202 284.333 43.7H276.333ZM276.695 42.7616C276.851 42.6056 277.051 42.4742 277.267 42.392C277.472 42.3139 277.612 42.31 277.633 42.31V50.31C279.303 50.31 281.008 49.7617 282.352 48.4184L276.695 42.7616ZM277.633 42.31H247.573V50.31H277.633V42.31ZM243.573 46.31V68.9H251.573V46.31H243.573ZM247.573 72.9H273.583V64.9H247.573V72.9ZM273.583 72.9C273.506 72.9 273.312 72.885 273.065 72.7791C272.811 72.6699 272.613 72.5126 272.484 72.3675L278.463 67.0525C277.158 65.5849 275.404 64.9 273.583 64.9V72.9ZM272.816 72.6996C272.671 72.5706 272.513 72.3728 272.404 72.1182C272.298 71.8711 272.283 71.6773 272.283 71.6H280.283C280.283 69.7798 279.598 68.0249 278.131 66.7204L272.816 72.6996ZM272.283 71.6C272.283 71.5227 272.298 71.3289 272.404 71.0818C272.513 70.8272 272.671 70.6294 272.816 70.5004L278.131 76.4796C279.598 75.1751 280.283 73.4202 280.283 71.6H272.283ZM272.645 70.6616C272.801 70.5056 273.001 70.3742 273.217 70.292C273.422 70.2139 273.562 70.21 273.583 70.21V78.21C275.253 78.21 276.958 77.6617 278.302 76.3184L272.645 70.6616ZM273.583 70.21H247.573V78.21H273.583V70.21ZM243.573 74.21V98.69H251.573V74.21H243.573ZM247.573 102.69H277.633V94.69H247.573V102.69ZM339.046 45.68L336.809 48.9963L336.897 49.0555L336.988 49.11L339.046 45.68ZM339.766 49.73L342.862 52.2629L343.012 52.0785L343.14 51.8775L339.766 49.73ZM336.256 50.27L334.047 53.6046L334.091 53.6339L334.136 53.662L336.256 50.27ZM307.276 48.92L305.28 45.4535L305.268 45.4601L305.257 45.4668L307.276 48.92ZM298.006 58.55L294.502 56.6204L294.497 56.6293L294.492 56.6382L298.006 58.55ZM298.096 86.72L294.592 88.6496L294.598 88.6605L294.604 88.6713L298.096 86.72ZM307.366 96.26L305.347 99.7132L305.378 99.7314L305.41 99.7491L307.366 96.26ZM336.166 94.91L334.046 91.518L334.006 91.543L333.966 91.5688L336.166 94.91ZM339.766 95.54L336.566 97.94L336.656 98.0606L336.755 98.174L339.766 95.54ZM339.136 99.41L337.151 95.937L337.032 96.0054L336.917 96.0818L339.136 99.41ZM330.496 103.37L331.639 107.203L331.67 107.194L331.7 107.184L330.496 103.37ZM304.666 100.85L302.672 104.318L302.697 104.332L302.723 104.347L304.666 100.85ZM293.146 89.33L289.675 91.3191L289.684 91.335L289.694 91.3507L293.146 89.33ZM293.146 56.03L296.616 58.0191L296.621 58.0101L296.626 58.001L293.146 56.03ZM304.576 44.42L306.57 47.8876L306.586 47.8783L306.602 47.8688L304.576 44.42ZM330.316 41.63L329.16 45.4593L329.17 45.4623L329.179 45.4652L330.316 41.63ZM336.988 49.11C336.989 49.1109 336.943 49.0835 336.873 49.0163C336.801 48.9472 336.712 48.8444 336.628 48.7055C336.444 48.3991 336.396 48.102 336.396 47.93H344.396C344.396 45.4138 343.073 43.4316 341.104 42.25L336.988 49.11ZM336.396 47.93C336.396 47.6783 336.445 47.5148 336.463 47.4636C336.479 47.4164 336.472 47.4547 336.391 47.5825L343.14 51.8775C343.795 50.8483 344.396 49.4996 344.396 47.93H336.396ZM336.67 47.197C336.729 47.1249 336.874 46.9803 337.117 46.864C337.362 46.7468 337.578 46.72 337.696 46.72V54.72C339.756 54.72 341.575 53.8351 342.862 52.2629L336.67 47.197ZM337.696 46.72C337.879 46.72 338.041 46.7497 338.169 46.7896C338.293 46.8282 338.362 46.8693 338.376 46.878L334.136 53.662C335.136 54.2871 336.341 54.72 337.696 54.72V46.72ZM338.465 46.9354C333.017 43.3261 327 41.5 320.506 41.5V49.5C325.411 49.5 329.895 50.8539 334.047 53.6046L338.465 46.9354ZM320.506 41.5C314.991 41.5 309.886 42.8016 305.28 45.4535L309.272 52.3865C312.586 50.4784 316.3 49.5 320.506 49.5V41.5ZM305.257 45.4668C300.704 48.1285 297.113 51.8783 294.502 56.6204L301.509 60.4796C303.458 56.9417 306.047 54.2715 309.294 52.3732L305.257 45.4668ZM294.492 56.6382C291.915 61.3745 290.676 66.6961 290.676 72.5H298.676C298.676 67.8639 299.656 63.8855 301.519 60.4618L294.492 56.6382ZM290.676 72.5C290.676 78.4258 291.946 83.8453 294.592 88.6496L301.599 84.7904C299.685 81.3147 298.676 77.2542 298.676 72.5H290.676ZM294.604 88.6713C297.22 93.3518 300.809 97.0601 305.347 99.7132L309.384 92.8068C306.123 90.8999 303.532 88.2482 301.587 84.7687L294.604 88.6713ZM305.41 99.7491C310.002 102.323 315.061 103.59 320.506 103.59V95.59C316.35 95.59 312.65 94.6366 309.322 92.7709L305.41 99.7491ZM320.506 103.59C326.984 103.59 332.969 101.803 338.365 98.2512L333.966 91.5688C329.883 94.257 325.428 95.59 320.506 95.59V103.59ZM338.286 98.302C338.237 98.3324 338.153 98.3758 338.037 98.41C337.92 98.4445 337.802 98.46 337.696 98.46V90.46C336.369 90.46 335.129 90.8408 334.046 91.518L338.286 98.302ZM337.696 98.46C337.524 98.46 337.264 98.4177 336.993 98.2763C336.731 98.1397 336.598 97.9835 336.566 97.94L342.966 93.14C341.733 91.4964 339.896 90.46 337.696 90.46V98.46ZM336.755 98.174C336.66 98.0645 336.557 97.907 336.485 97.7103C336.413 97.5157 336.396 97.351 336.396 97.25H344.396C344.396 95.658 343.858 94.1425 342.776 92.906L336.755 98.174ZM336.396 97.25C336.396 97.1308 336.428 96.834 336.626 96.4945C336.823 96.1566 337.061 95.9888 337.151 95.937L341.12 102.883C343.194 101.698 344.396 99.6593 344.396 97.25H336.396ZM336.917 96.0818C334.963 97.3846 332.445 98.5596 329.291 99.5557L331.7 107.184C335.386 106.02 338.629 104.555 341.355 102.738L336.917 96.0818ZM329.352 99.5368C326.266 100.457 323.321 100.9 320.506 100.9V108.9C324.17 108.9 327.885 108.323 331.639 107.203L329.352 99.5368ZM320.506 100.9C315.468 100.9 310.859 99.7147 306.608 97.3534L302.723 104.347C308.193 107.385 314.144 108.9 320.506 108.9V100.9ZM306.66 97.3824C302.482 94.9801 299.137 91.6469 296.598 87.3093L289.694 91.3507C292.915 96.8531 297.25 101.2 302.672 104.318L306.66 97.3824ZM296.616 87.3409C294.181 83.0916 292.916 78.1814 292.916 72.5H284.916C284.916 79.4186 286.471 85.7284 289.675 91.3191L296.616 87.3409ZM292.916 72.5C292.916 67.0883 294.167 62.292 296.616 58.0191L289.675 54.0409C286.484 59.608 284.916 65.7917 284.916 72.5H292.916ZM296.626 58.001C299.106 53.622 302.412 50.2784 306.57 47.8876L302.582 40.9524C297.14 44.0816 292.825 48.478 289.665 54.059L296.626 58.001ZM306.602 47.8688C310.759 45.4264 315.364 44.19 320.506 44.19V36.19C314.007 36.19 307.992 37.7735 302.55 40.9711L306.602 47.8688ZM320.506 44.19C323.479 44.19 326.359 44.6138 329.16 45.4593L331.472 37.8007C327.912 36.7262 324.253 36.19 320.506 36.19V44.19ZM329.179 45.4652C332.062 46.3192 334.595 47.5031 336.809 48.9963L341.282 42.3637C338.336 40.3769 335.05 38.8608 331.452 37.7948L329.179 45.4652Z" fill="#747474"/>
</svg>
