<svg width="308" height="278" viewBox="0 0 308 278" fill="none" xmlns="http://www.w3.org/2000/svg">
<g id="lightStars">
<path id="med" d="M193.703 224.527C220.239 224.527 241.828 245.696 241.828 271.715C241.828 274.972 244.522 277.613 247.844 277.613C251.166 277.613 253.859 274.972 253.859 271.715C253.859 245.696 275.448 224.527 301.984 224.527C305.306 224.527 308 221.886 308 218.629C308 215.372 305.306 212.73 301.984 212.73C275.448 212.73 253.859 191.562 253.859 165.543C253.859 162.286 251.166 159.645 247.844 159.645C244.522 159.645 241.828 162.286 241.828 165.543C241.828 191.562 220.239 212.73 193.703 212.73C190.381 212.73 187.688 215.372 187.688 218.629C187.688 221.886 190.381 224.527 193.703 224.527ZM247.844 191.243C253.749 203.154 263.625 212.838 275.774 218.629C263.626 224.419 253.749 234.103 247.844 246.015C241.939 234.103 232.062 224.419 219.914 218.629C232.062 212.839 241.939 203.155 247.844 191.243Z" fill="black" fill-opacity="0.16"/>
<path id="small" d="M6.01562 47.5742C22.6007 47.5742 36.0938 60.8044 36.0938 77.0664C36.0938 80.3235 38.7869 82.9648 42.1094 82.9648C45.4318 82.9648 48.125 80.3235 48.125 77.0664C48.125 60.8044 61.618 47.5742 78.2031 47.5742C81.5256 47.5742 84.2188 44.9329 84.2188 41.6758C84.2188 38.4187 81.5256 35.7773 78.2031 35.7773C61.618 35.7773 48.125 22.5471 48.125 6.28516C48.125 3.02804 45.4318 0.386719 42.1094 0.386719C38.7869 0.386719 36.0938 3.02804 36.0938 6.28516C36.0938 22.5471 22.6007 35.7773 6.01562 35.7773C2.6932 35.7773 0 38.4187 0 41.6758C0 44.9329 2.6932 47.5742 6.01562 47.5742ZM42.1094 27.5337C45.6664 33.3201 50.6311 38.1886 56.5318 41.6758C50.6305 45.1629 45.6658 50.0315 42.1094 55.8179C38.5523 50.0315 33.5876 45.1629 27.6869 41.6758C33.5876 38.1886 38.5523 33.3201 42.1094 27.5337Z" fill="black" fill-opacity="0.16"/>
<path id="Vector" d="M167.836 167.312C171.158 167.312 173.852 164.672 173.852 161.414C173.852 158.156 171.158 155.516 167.836 155.516C164.514 155.516 161.82 158.156 161.82 161.414C161.82 164.672 164.514 167.312 167.836 167.312Z" fill="black" fill-opacity="0.16"/>
<path id="Vector_2" d="M183.884 147.962C185.579 150.763 189.271 151.687 192.128 150.024C207.839 140.883 225.857 136.051 244.234 136.051C247.556 136.051 250.25 133.409 250.25 130.152C250.25 126.895 247.556 124.254 244.234 124.254C187.845 124.254 141.969 79.2712 141.969 23.9805C141.969 20.7234 139.276 18.082 135.953 18.082C132.631 18.082 129.938 20.7234 129.938 23.9805C129.938 79.2712 84.0611 124.254 27.6719 124.254C24.3494 124.254 21.6562 126.895 21.6562 130.152C21.6562 133.409 24.3494 136.051 27.6719 136.051C84.0611 136.051 129.938 181.033 129.938 236.324C129.938 239.581 132.631 242.223 135.953 242.223C139.276 242.223 141.969 239.581 141.969 236.324C141.969 218.305 146.897 200.638 156.22 185.233C157.915 182.431 156.974 178.812 154.117 177.15C151.257 175.486 147.568 176.411 145.873 179.212C141.805 185.935 138.485 193.041 135.949 200.406C124.548 167.448 97.9061 141.329 64.292 130.152C97.9097 118.975 124.554 92.85 135.953 59.8872C147.352 92.8465 173.989 118.969 207.602 130.148C200.091 132.635 192.844 135.89 185.987 139.879C183.131 141.542 182.189 145.16 183.884 147.962Z" fill="black" fill-opacity="0.16"/>
</g>
</svg>
