<svg width="465" height="448" viewBox="0 0 465 448" fill="none" xmlns="http://www.w3.org/2000/svg">
<g id="shootingStar" clip-path="url(#clip0)">
<g id="Group">
<g id="Group_2">
<g id="Group_3">
<path id="Vector" d="M321.163 322.884C321.166 322.897 321.166 322.9 321.163 322.884V322.884Z" fill="black" fill-opacity="0.11"/>
<path id="Vector_2" d="M389.643 124.79C388.258 127.231 389.295 130.354 391.947 131.768C406.719 139.644 409.839 154.884 404.773 169.727C391.567 208.418 349.426 244.27 313.316 263.425C311.545 263.099 311.543 263.163 311.487 263.055L306.384 253.27C332.915 234.255 392.622 188.182 388.848 156.099C387.773 146.944 382.006 139.709 371.708 134.595C371.532 134.508 371.353 134.43 371.17 134.362C274.351 97.8288 60.0031 191.532 26.2721 284.871C34.0631 253.923 66.9636 216.808 116.178 183.991C118.567 182.397 119.044 179.221 117.245 176.894C115.446 174.567 112.052 173.972 109.663 175.565C39.6041 222.281 -10.5131 287.748 25.5002 330.294C30.8411 336.607 41.2052 330.862 37.1369 323.294C24.5254 299.85 43.6196 269.856 60.9131 250.506C134.712 167.936 297.358 117.609 367.267 143.713C373.911 147.075 377.452 151.347 378.089 156.766C380.619 178.297 341.064 215.091 301.41 243.73L288.962 219.864C284.886 212.046 273.267 211.631 269.309 219.159L247.434 260.754C247.376 260.862 249.617 260.565 197.746 265.834C190.524 266.562 188.792 272.764 188.954 272.544C187.684 276.263 188.778 280.358 191.808 283.23C229.507 318.992 228.043 317.501 228.021 317.63L226.496 326.323C226.012 329.082 228.011 331.789 230.962 332.372C233.912 332.954 236.698 331.194 237.18 328.43L238.704 319.739C239.289 316.41 238.085 312.949 235.483 310.482C235.447 310.449 235.421 310.423 235.399 310.403C235.428 310.431 235.459 310.461 235.473 310.474C235.289 310.299 231.527 306.733 199.264 276.147C199.255 276.109 199.285 276.02 199.31 276L248.969 270.97C252.536 270.609 255.605 268.608 257.178 265.616C257.998 264.056 252.281 274.924 279.086 223.968C279.121 223.949 279.22 223.953 279.251 223.97L301.815 267.219C303.435 270.327 306.536 272.549 310.109 273.165C311.973 273.487 298.988 271.244 359.868 281.76C360.163 282.012 361.947 279.958 324.209 313.669C321.647 315.95 320.495 319.323 321.128 322.696C321.149 322.808 321.16 322.863 321.164 322.883C321.158 322.856 321.143 322.771 321.134 322.726C321.213 323.14 322.24 328.599 329.974 369.658C329.958 369.693 329.879 369.746 329.844 369.748L285.205 346.125C282 344.429 278.188 344.292 275.008 345.76L230.716 366.187C230.674 366.182 230.594 366.124 230.579 366.094C234.377 344.386 232.584 354.629 233.084 351.773C233.567 349.013 231.569 346.306 228.618 345.724C225.667 345.141 222.879 346.902 222.399 349.666L219.899 363.919C218.431 372.296 227.879 379.071 235.883 375.377C282.099 354.081 280.118 354.914 280.238 354.977L324.807 378.57C332.874 382.843 342.223 376.739 340.623 368.255C331.432 319.357 331.723 321.333 331.823 321.247L367.491 289.539C373.264 284.407 371.006 275.182 363.539 272.324C388.29 254.492 410.719 232.642 411.852 229.322C413.639 224.084 406.314 219.998 402.531 224.116C388.071 239.853 370.051 255.14 348.946 269.575L329.679 266.247C365.312 244.597 402.072 211.406 415.094 173.254C421.71 153.87 416.532 133.358 396.947 122.928C394.292 121.518 391.023 122.351 389.643 124.79ZM235.384 310.392C235.374 310.382 235.366 310.375 235.359 310.368C235.367 310.375 235.375 310.383 235.384 310.392Z" fill="black" fill-opacity="0.11"/>
<path id="Vector_3" d="M235.474 310.475C235.486 310.488 235.485 310.486 235.474 310.475V310.475Z" fill="black" fill-opacity="0.11"/>
</g>
</g>
</g>
<g id="Group_4">
<g id="Group_5">
<path id="Vector_4" d="M343.337 96.0369C271.898 97.5417 190.795 126.925 130.574 162.458C128.092 163.922 127.431 167.063 129.098 169.472C130.765 171.882 134.128 172.648 136.61 171.184C256.913 100.193 403.897 84.8143 432.308 137.631C441.752 155.192 436.414 179.513 417.277 206.122C415.636 208.406 416.328 211.598 418.826 213.252C421.325 214.906 424.681 214.395 426.324 212.112C475.335 143.974 437.177 94.0607 343.337 96.0369Z" fill="black" fill-opacity="0.11"/>
</g>
</g>
</g>
<defs>
<clipPath id="clip0">
<rect width="345.703" height="372.293" fill="white" transform="translate(0 327.17) rotate(-71.1542)"/>
</clipPath>
</defs>
</svg>
